<svg id="Camada_1" data-name="Camada 1" xmlns="http://www.w3.org/2000/svg" viewBox="0 0 800 800"><defs><style>.cls-1{fill:#f9d240;}.cls-2{fill:#dbe8f3;}.cls-3{fill:#fff;}</style></defs><circle class="cls-1" cx="400" cy="400" r="384.25"/><path class="cls-2" d="M394.13,762.82a6.79,6.79,0,0,0,0-.78,12.52,12.52,0,0,1,12.76,0c0,.26,0,.52,0,.78Z"/><path class="cls-2" d="M38,403.18a6.85,6.85,0,0,1-.79,0v-7.25l.8,0A5.34,5.34,0,0,1,38,403.18Z"/><path class="cls-3" d="M762.15,377.89a359.87,359.87,0,0,0-95.23-224A355.58,355.58,0,0,0,556.11,72.29q-94.38-44.54-198-32.61A356,356,0,0,0,243.13,72.94,362.07,362.07,0,0,0,38,395.85c0,2.45,0,4.89,0,7.33A362.12,362.12,0,0,0,394.09,762h12.76a326.4,326.4,0,0,0,48.18-4c43.15-6.72,84-20.38,122.06-41.89,63.33-35.77,112.08-85.82,145.49-150.38Q768.27,477.48,762.15,377.89ZM400,725.92c-179.29.24-326-146-326-326.39C74,219.74,220.28,72.9,401.06,73.21c180.05.31,327.33,147.5,325.73,329.47C725.21,581,579.58,726.52,400,725.92Z"/><path class="cls-3" d="M249.91,466.5c-14.19,0-28.38-.07-42.56.05-3,0-4.26-.51-4.23-3.9.18-20.67-.19-41.36.23-62,.8-39.09,31.81-73.6,70.5-79.05,13.23-1.86,26.52-.59,39.78-.91q10.86-.26,21.73,0c3,.08,4-.92,3.78-3.87-.22-2.7-.05-5.43,0-8.15,0-11,5.82-17.11,16.82-17.55,4.52-.18,9.05,0,13.58,0h130c4.1,0,8.2.19,11.79,2.47,4.63,2.93,7.34,7.05,7.34,12.71,0,3.32.26,6.66-.07,10-.36,3.74,1.15,4.5,4.6,4.48,24.91-.13,49.81,0,74.72-.17,4,0,5,1,5,5q-.27,41.89,0,83.77c0,4.23-1.36,4.87-5.12,4.85-24.91-.16-49.81-.05-74.72-.13a13.81,13.81,0,0,0-7.6,2.22c-13.76,8.37-26.53,18.47-41.71,24.4Q417,462.79,365.09,430.69c-7.82-4.84-15.55-9.84-23.26-14.86A10.15,10.15,0,0,0,336,414c-11.47.09-22.95.2-34.41-.05-3.76-.08-4.47,1.28-4.43,4.67.16,14.18-.06,28.37.14,42.56.06,4-.88,5.5-5.23,5.41C278,466.32,264,466.5,249.91,466.5Z"/><path class="cls-3" d="M413.39,265a15.59,15.59,0,0,1,0-1.81c1.06-9,.56-17-9.87-21-3.57-1.38-6.32-5.16-8.49-8.62-1.63-2.61-3.5-2.64-6.09-2.18-18.69,3.3-37.4,6.42-56.08,9.74-6.1,1.08-10.61-1.28-14.17-5.9-9.92-12.89-10-37.69-.55-50.89,4.09-5.69,9.3-7.75,16.08-6.54,18.23,3.24,36.48,6.4,54.71,9.67,2.83.51,4.62-.14,6.45-2.63a41.31,41.31,0,0,1,66.79-.34c2.06,2.74,4,3.52,7.15,2.94,17.93-3.25,35.88-6.34,53.81-9.6,6.94-1.26,12.46.63,16.61,6.44,8.76,12.27,9.22,35.95.94,48.73-4.16,6.43-9.53,9.5-17.53,8-17.9-3.39-35.89-6.3-53.81-9.58-3.21-.59-5.22-.11-7.13,2.82a34,34,0,0,1-14.33,12.14c-2.73,1.28-3.74,2.82-3.66,5.86.21,8.75,0,17.51.12,26.27,0,2.75-.48,4.12-3.68,4-8-.2-16-.15-24,0-2.62,0-3.4-.91-3.32-3.43C413.5,274.37,413.39,269.69,413.39,265Z"/><path class="cls-3" d="M249.76,509.3c2.92,2.18,4.41,5.21,6.28,7.89,12.34,17.69,24,35.7,32.82,55.56,12,27.22-7,54.22-30.95,58.11-16.38,2.66-30.23-2.09-40.77-14.93-9.94-12.13-12.34-25.88-6.65-40.7,7.79-20.3,19.89-38.15,32.08-55.94C244.86,515.94,247.31,512.7,249.76,509.3Z"/><path class="cls-3" d="M250,475.56c16,0,32,.08,47.94-.07,3.17,0,4.23.89,4,4.06a106.19,106.19,0,0,0,0,13.11c.23,3.53-.85,4.61-4.49,4.58-25.32-.15-50.64-.08-76-.08-6.63,0-13.26-.09-19.89,0-2.73.05-3.79-.91-3.71-3.67.15-4.67.23-9.36,0-14-.17-3.25,1.09-4,4.16-4C218.08,475.63,234.06,475.56,250,475.56Z"/></svg>