<svg id="Camada_1" data-name="Camada 1" xmlns="http://www.w3.org/2000/svg" viewBox="0 0 800 800"><defs><style>.cls-1{fill:#14bd7a;}.cls-2{fill:#dbe8f3;}.cls-3{fill:#fff;}</style></defs><circle class="cls-1" cx="396" cy="401.41" r="384.25"/><path class="cls-2" d="M390.13,764.24a6.85,6.85,0,0,0,0-.79,12.52,12.52,0,0,1,12.76,0c0,.26,0,.52,0,.79Z"/><path class="cls-2" d="M34,404.59a5.16,5.16,0,0,1-.79,0V397.3l.8,0A5.33,5.33,0,0,1,34,404.59Z"/><path class="cls-3" d="M758.15,379.31a359.86,359.86,0,0,0-95.23-224A355.74,355.74,0,0,0,552.11,73.7q-94.38-44.54-198-32.61A356.27,356.27,0,0,0,239.13,74.35,362.07,362.07,0,0,0,34,397.27c0,2.44,0,4.88,0,7.32A362.12,362.12,0,0,0,390.09,763.45h12.76a326.4,326.4,0,0,0,48.18-4c43.15-6.72,84-20.38,122.06-41.89,63.33-35.76,112.08-85.82,145.49-150.38Q764.27,478.89,758.15,379.31ZM396,727.34c-179.29.23-326-146.05-326-326.4C70,221.15,216.28,74.32,397.06,74.62c180.05.31,327.33,147.5,325.73,329.47C721.21,582.41,575.58,727.93,396,727.34Z"/><path class="cls-3" d="M245.91,467.91c-14.19,0-28.38-.07-42.56.06-3,0-4.26-.51-4.23-3.91.18-20.67-.19-41.36.23-62,.8-39.09,31.81-73.6,70.5-79,13.23-1.86,26.52-.59,39.78-.91q10.86-.26,21.73,0c3,.08,4-.92,3.78-3.87-.22-2.7-.05-5.43,0-8.15,0-11,5.82-17.11,16.82-17.55,4.52-.18,9.05,0,13.58,0h130c4.1,0,8.2.19,11.79,2.47,4.63,2.93,7.34,7,7.34,12.71,0,3.32.26,6.67-.07,9.95-.36,3.74,1.15,4.5,4.6,4.48,24.91-.13,49.81,0,74.72-.17,4,0,5,1,5,5q-.27,41.9,0,83.78c0,4.22-1.36,4.86-5.12,4.84-24.91-.16-49.81-.05-74.72-.13a13.81,13.81,0,0,0-7.6,2.22c-13.76,8.37-26.53,18.47-41.71,24.4Q413,464.2,361.09,432.1c-7.82-4.83-15.55-9.84-23.26-14.86a10.22,10.22,0,0,0-5.88-1.82c-11.47.09-22.95.2-34.41,0-3.76-.09-4.47,1.27-4.43,4.66.16,14.18-.06,28.38.14,42.56.06,4-.88,5.51-5.23,5.42C274,467.73,260,467.91,245.91,467.91Z"/><path class="cls-3" d="M409.39,266.42a15.6,15.6,0,0,1,0-1.81c1.06-9,.56-17-9.87-21.05-3.57-1.38-6.32-5.16-8.49-8.61-1.63-2.62-3.5-2.65-6.09-2.19-18.69,3.3-37.4,6.43-56.08,9.74-6.1,1.08-10.61-1.28-14.17-5.9-9.92-12.88-10-37.69-.55-50.89,4.09-5.68,9.3-7.75,16.08-6.54,18.23,3.24,36.48,6.4,54.71,9.67,2.83.51,4.62-.14,6.45-2.62a41.31,41.31,0,0,1,66.79-.35c2.06,2.74,4,3.52,7.15,2.95,17.93-3.26,35.88-6.34,53.81-9.61,6.94-1.26,12.46.63,16.61,6.44,8.76,12.27,9.22,36,.94,48.74-4.16,6.42-9.53,9.49-17.53,8-17.9-3.39-35.89-6.3-53.81-9.58-3.21-.59-5.22-.1-7.13,2.82a34,34,0,0,1-14.33,12.14c-2.73,1.28-3.74,2.83-3.66,5.86.21,8.75,0,17.51.12,26.27,0,2.75-.48,4.12-3.68,4-8-.2-16-.15-24,0-2.62.05-3.4-.91-3.32-3.43C409.5,275.78,409.39,271.1,409.39,266.42Z"/><path class="cls-3" d="M245.76,510.72c2.92,2.17,4.41,5.2,6.28,7.88,12.34,17.69,24,35.7,32.82,55.56,12,27.22-7,54.22-31,58.11-16.38,2.67-30.23-2.09-40.77-14.93-9.94-12.13-12.34-25.88-6.65-40.7,7.79-20.29,19.89-38.15,32.08-55.94C240.86,517.35,243.31,514.11,245.76,510.72Z"/><path class="cls-3" d="M246,477c16,0,32,.08,47.94-.07,3.17,0,4.23.89,4,4.07a106,106,0,0,0,0,13.1c.23,3.53-.85,4.61-4.49,4.59-25.32-.16-50.64-.09-76-.09-6.63,0-13.26-.08-19.89,0-2.73.06-3.79-.91-3.71-3.67.15-4.67.23-9.35,0-14-.17-3.26,1.09-4.05,4.16-4C214.08,477,230.06,477,246,477Z"/></svg>